<svg width="316" height="109" viewBox="0 0 316 109" fill="none" xmlns="http://www.w3.org/2000/svg">
<path d="M66.76 4.51999V0.199999H97.32V4.51999L88.52 5.32C86.8133 5.53333 85.8 6.01333 85.48 6.75999C85.16 7.4 85 9.53333 85 13.16V109H77.16L18.92 10.76V96.04C18.92 99.6667 19.08 101.853 19.4 102.6C19.72 103.24 20.7333 103.667 22.44 103.88L31.24 104.84V109H0.68V104.84L9.48 103.88C11.1867 103.667 12.2 103.24 12.52 102.6C12.84 101.853 13 99.6667 13 96.04V13.16C13 9.53333 12.84 7.4 12.52 6.75999C12.2 6.01333 11.1867 5.53333 9.48 5.32L0.68 4.51999V0.199999H28.36L79.08 85.96V13.16C79.08 9.53333 78.92 7.4 78.6 6.75999C78.28 6.01333 77.2667 5.53333 75.56 5.32L66.76 4.51999ZM169.385 82.92H173.545V109H96.905V104.84L105.705 103.88C107.412 103.667 108.425 103.24 108.745 102.6C109.065 101.96 109.225 99.7733 109.225 96.04V13.16C109.225 9.42666 109.065 7.24 108.745 6.59999C108.425 5.95999 107.412 5.53333 105.705 5.32L96.905 4.51999V0.199999H171.465V26.28H167.465L162.825 9.47999C162.505 8.2 162.132 7.29333 161.705 6.75999C161.385 6.11999 160.692 5.74666 159.625 5.64C158.558 5.42666 156.745 5.32 154.185 5.32H123.145V51.56H144.585C147.145 51.56 148.958 51.5067 150.025 51.4C151.092 51.1867 151.785 50.8133 152.105 50.28C152.532 49.64 152.905 48.68 153.225 47.4L156.265 35.4H160.425V72.84H156.265L153.225 60.84C152.905 59.56 152.532 58.6533 152.105 58.12C151.785 57.48 151.092 57.1067 150.025 57C148.958 56.7867 147.145 56.68 144.585 56.68H123.145V103.88H156.105C158.665 103.88 160.478 103.827 161.545 103.72C162.612 103.507 163.305 103.133 163.625 102.6C164.052 101.96 164.425 101 164.745 99.72L169.385 82.92ZM268.438 109L241.237 17.16L214.358 109H203.797L180.437 12.2C179.691 9.10667 179.104 7.24 178.677 6.59999C178.251 5.95999 177.184 5.53333 175.477 5.32L167.317 4.51999V0.199999H204.597V4.51999L196.437 5.32C194.731 5.53333 193.771 5.95999 193.557 6.59999C193.451 7.13333 193.771 8.99999 194.517 12.2L213.557 92.2L240.278 0.199999H250.198L277.238 91.56L296.438 12.2C297.291 8.99999 297.558 7.13333 297.238 6.59999C297.024 5.95999 296.118 5.53333 294.518 5.32L286.198 4.51999V0.199999H315.318V4.51999L307.158 5.32C305.558 5.53333 304.544 5.95999 304.118 6.59999C303.691 7.13333 303.051 8.99999 302.198 12.2L278.838 109H268.438Z" fill="white"/>
</svg>
