<svg width="4181" height="860" viewBox="0 0 4181 860" fill="none" xmlns="http://www.w3.org/2000/svg">
<path d="M55.7153 853.688C54.982 846.355 54.982 839.022 55.7153 831.688C79.9153 829.488 97.882 826.922 109.615 823.988C122.082 820.322 131.982 812.622 139.315 800.888C146.649 788.422 155.082 768.622 164.615 741.488L408.815 83.6883C414.682 81.4883 421.649 80.0217 429.715 79.2884C438.515 77.8217 445.482 77.0883 450.615 77.0883L697.015 748.088C706.549 773.755 714.249 792.088 720.115 803.088C726.715 814.088 735.882 821.055 747.615 823.988C759.349 826.922 777.682 829.488 802.615 831.688C803.349 839.022 803.349 846.355 802.615 853.688C783.549 853.688 761.915 853.322 737.715 852.588C714.249 851.855 692.615 851.488 672.815 851.488C652.282 851.488 632.849 851.855 614.515 852.588C596.915 853.322 577.849 853.688 557.315 853.688C556.582 846.355 556.582 839.022 557.315 831.688C582.982 829.488 599.849 827.288 607.915 825.088C616.715 822.155 621.115 815.555 621.115 805.288C621.115 801.622 620.382 797.222 618.915 792.088C617.449 786.222 615.249 779.255 612.315 771.188L536.415 558.888H274.615L203.115 759.088C195.782 778.888 192.115 793.188 192.115 801.988C192.115 813.722 197.615 821.055 208.615 823.988C219.615 826.922 237.582 829.488 262.515 831.688C263.249 839.022 263.249 846.355 262.515 853.688C244.182 853.688 226.215 853.322 208.615 852.588C191.749 851.855 174.149 851.488 155.815 851.488C141.149 851.488 124.649 851.855 106.315 852.588C88.7153 853.322 71.8486 853.688 55.7153 853.688ZM286.715 524.788H523.215L404.415 193.688L286.715 524.788Z" fill="white"/>
<path d="M648.602 616.205C642.471 635.178 635.399 657.436 627.387 682.979C620.097 708.043 613.877 730.8 608.726 751.25C580.399 750.906 547.408 750.201 509.754 749.134C472.706 748.196 434.477 743.52 395.065 735.105C322.911 719.701 263.31 693.032 216.261 655.099C169.934 616.687 137.458 570.14 118.833 515.458C100.813 460.906 97.9999 401.044 110.393 335.872C122.901 270.09 147.85 215.204 185.239 171.214C222.743 126.615 269.987 95.5035 326.969 77.88C384.557 60.3858 449.731 59.4059 522.492 74.9402C541.894 79.0827 561.975 84.6375 582.733 91.6047C603.608 97.9628 626.921 106.426 652.673 116.995C662.633 121.023 672.29 124.986 681.644 128.884C690.998 132.783 701.132 135.897 712.046 138.227C713.865 138.616 715.684 139.004 717.503 139.392C719.928 139.91 723.018 140.253 726.772 140.421C723.672 160.041 720.064 183.989 715.949 212.266C712.441 240.672 709.15 266.273 706.077 289.068C702.323 288.901 699.176 288.862 696.635 288.954C694.209 288.436 691.481 287.853 688.449 287.206C690.698 238.883 677.161 198.914 647.839 167.302C618.517 135.689 574.146 113.539 514.725 100.853C463.793 89.9789 419.728 89.4444 382.53 99.2495C345.448 108.445 314.181 125.221 288.728 149.576C263.391 173.322 243.004 202.562 227.566 237.294C212.244 271.418 200.935 307.666 193.638 346.039C185.762 387.456 182.839 427.713 184.869 466.809C187.621 505.426 197.247 541.073 213.748 573.751C230.248 606.43 254.821 634.81 287.468 658.893C320.23 682.367 362.987 699.735 415.738 710.998C475.765 723.813 521.925 721.626 554.218 704.436C586.511 687.245 611.606 656.476 629.503 612.127C630.716 612.386 631.928 612.645 633.141 612.904C635.076 612.683 636.953 612.767 638.772 613.155C639.984 613.414 641.442 614.042 643.145 615.04C644.964 615.428 646.783 615.816 648.602 616.205Z" fill="white"/>
<path d="M1136.4 728L851.403 359V662.6C851.403 673.8 851.603 682.4 852.003 688.4C852.803 694 854.603 698.4 857.403 701.6C860.603 704.4 865.203 707 871.203 709.4C877.203 711.4 885.803 712.8 897.003 713.6C897.403 717.6 897.403 721.6 897.003 725.6C888.203 725.6 878.403 725.4 867.603 725C857.203 724.6 848.403 724.4 841.203 724.4C834.003 724.4 825.003 724.6 814.203 725C803.803 725.4 794.403 725.6 786.003 725.6C785.603 721.6 785.603 717.6 786.003 713.6C800.003 712 810.003 710.2 816.003 708.2C822.003 706.2 825.603 702.4 826.803 696.8C828.403 690.8 829.203 681.2 829.203 668V369.8C829.203 354.2 828.403 343 826.803 336.2C825.203 329 821.003 324.2 814.203 321.8C807.803 319.4 797.203 317.4 782.403 315.8C782.003 312.2 782.003 308.4 782.403 304.4C791.603 304.4 801.203 304.6 811.203 305C821.603 305.4 831.803 305.6 841.803 305.6C843.003 305.6 846.803 305.6 853.203 305.6C860.003 305.6 866.003 305.4 871.203 305L1138.8 652.4V368C1138.8 357.2 1138.6 348.8 1138.2 342.8C1137.8 336.4 1136 331.8 1132.8 329C1126.8 322.2 1112 318 1088.4 316.4C1088 312.4 1088 308.6 1088.4 305C1096.8 305 1107.2 305.2 1119.6 305.6C1132 305.6 1141.8 305.6 1149 305.6C1156.2 305.6 1165 305.6 1175.4 305.6C1186.2 305.2 1196 305 1204.8 305C1205.2 308.6 1205.2 312.4 1204.8 316.4C1190.8 318 1180.6 320 1174.2 322.4C1168.2 324.4 1164.4 328.4 1162.8 334.4C1161.6 340 1161 349.4 1161 362.6V725.6C1158.2 726.4 1154.2 727 1149 727.4C1144.2 727.8 1140 728 1136.4 728ZM1585 728L1300 359V662.6C1300 673.8 1300.2 682.4 1300.6 688.4C1301.4 694 1303.2 698.4 1306 701.6C1309.2 704.4 1313.8 707 1319.8 709.4C1325.8 711.4 1334.4 712.8 1345.6 713.6C1346 717.6 1346 721.6 1345.6 725.6C1336.8 725.6 1327 725.4 1316.2 725C1305.8 724.6 1297 724.4 1289.8 724.4C1282.6 724.4 1273.6 724.6 1262.8 725C1252.4 725.4 1243 725.6 1234.6 725.6C1234.2 721.6 1234.2 717.6 1234.6 713.6C1248.6 712 1258.6 710.2 1264.6 708.2C1270.6 706.2 1274.2 702.4 1275.4 696.8C1277 690.8 1277.8 681.2 1277.8 668V369.8C1277.8 354.2 1277 343 1275.4 336.2C1273.8 329 1269.6 324.2 1262.8 321.8C1256.4 319.4 1245.8 317.4 1231 315.8C1230.6 312.2 1230.6 308.4 1231 304.4C1240.2 304.4 1249.8 304.6 1259.8 305C1270.2 305.4 1280.4 305.6 1290.4 305.6C1291.6 305.6 1295.4 305.6 1301.8 305.6C1308.6 305.6 1314.6 305.4 1319.8 305L1587.4 652.4V368C1587.4 357.2 1587.2 348.8 1586.8 342.8C1586.4 336.4 1584.6 331.8 1581.4 329C1575.4 322.2 1560.6 318 1537 316.4C1536.6 312.4 1536.6 308.6 1537 305C1545.4 305 1555.8 305.2 1568.2 305.6C1580.6 305.6 1590.4 305.6 1597.6 305.6C1604.8 305.6 1613.6 305.6 1624 305.6C1634.8 305.2 1644.6 305 1653.4 305C1653.8 308.6 1653.8 312.4 1653.4 316.4C1639.4 318 1629.2 320 1622.8 322.4C1616.8 324.4 1613 328.4 1611.4 334.4C1610.2 340 1609.6 349.4 1609.6 362.6V725.6C1606.8 726.4 1602.8 727 1597.6 727.4C1592.8 727.8 1588.6 728 1585 728ZM1780.39 351.2V673.4C1780.39 685.4 1780.99 694.2 1782.19 699.8C1783.39 705 1786.99 708.4 1792.99 710C1798.99 711.2 1809.19 712.4 1823.59 713.6C1823.99 717.6 1823.99 721.6 1823.59 725.6C1814.79 725.6 1803.39 725.4 1789.39 725C1775.39 724.6 1764.39 724.4 1756.39 724.4C1747.59 724.4 1736.39 724.6 1722.79 725C1709.19 725.4 1697.79 725.6 1688.59 725.6C1688.19 721.6 1688.19 717.6 1688.59 713.6C1702.59 712.4 1712.59 711.2 1718.59 710C1724.99 708.8 1728.79 706 1729.99 701.6C1731.59 696.8 1732.39 689.2 1732.39 678.8V356.6C1732.39 344.6 1731.59 336 1729.99 330.8C1728.39 325.6 1724.59 322.2 1718.59 320.6C1712.59 318.6 1702.59 317.2 1688.59 316.4C1688.19 312.4 1688.19 308.4 1688.59 304.4C1694.59 304.4 1701.79 304.6 1710.19 305C1718.99 305 1727.59 305.2 1735.99 305.6C1744.39 305.6 1751.39 305.6 1756.99 305.6C1762.59 305.6 1769.39 305.6 1777.39 305.6C1785.79 305.2 1794.19 305 1802.59 305C1810.99 304.6 1817.99 304.4 1823.59 304.4C1823.99 308.4 1823.99 312.4 1823.59 316.4C1809.59 317.6 1799.59 318.8 1793.59 320C1787.59 321.2 1783.79 324 1782.19 328.4C1780.99 332.8 1780.39 340.4 1780.39 351.2ZM2230.48 304.4C2230.88 308.4 2230.88 312.4 2230.48 316.4C2216.08 317.2 2205.28 318.6 2198.08 320.6C2191.28 322.6 2185.88 327 2181.88 333.8C2177.88 340.2 2173.08 350.8 2167.48 365.6L2032.48 724.4C2029.68 725.6 2025.88 726.4 2021.08 726.8C2016.68 727.6 2012.88 728 2009.68 728L1873.48 362C1868.28 348 1863.88 338 1860.28 332C1856.68 326 1851.48 322.2 1844.68 320.6C1838.28 318.6 1827.68 317.2 1812.88 316.4C1812.48 312.4 1812.48 308.4 1812.88 304.4C1823.28 304.4 1835.48 304.6 1849.48 305C1863.48 305.4 1875.88 305.6 1886.68 305.6C1897.88 305.6 1908.88 305.4 1919.68 305C1930.88 304.6 1942.08 304.4 1953.28 304.4C1953.68 308.4 1953.68 312.4 1953.28 316.4C1937.28 317.6 1926.88 319 1922.08 320.6C1917.28 321.8 1914.88 325.2 1914.88 330.8C1914.88 332.8 1915.28 335.4 1916.08 338.6C1916.88 341.4 1918.08 345 1919.68 349.4L2034.88 664.4L2146.48 356C2150.48 345.2 2152.48 337.4 2152.48 332.6C2152.48 326.2 2149.28 322.2 2142.88 320.6C2136.88 319 2126.08 317.6 2110.48 316.4C2110.08 312.4 2110.08 308.4 2110.48 304.4C2120.48 304.4 2130.68 304.6 2141.08 305C2151.88 305.4 2162.28 305.6 2172.28 305.6C2180.28 305.6 2189.68 305.4 2200.48 305C2211.68 304.6 2221.68 304.4 2230.48 304.4ZM2215.49 725.6C2215.09 721.6 2215.09 717.6 2215.49 713.6C2229.09 712.4 2238.89 711.2 2244.89 710C2250.89 708.4 2254.49 705.4 2255.69 701C2257.29 696.6 2258.09 689.2 2258.09 678.8V356.6C2258.09 344.6 2257.29 336 2255.69 330.8C2254.09 325.6 2250.29 322.2 2244.29 320.6C2238.69 318.6 2229.09 317.2 2215.49 316.4C2215.09 312.4 2215.09 308.4 2215.49 304.4C2225.49 304.4 2233.89 304.6 2240.69 305C2247.89 305 2256.09 305.2 2265.29 305.6C2274.89 305.6 2287.89 305.6 2304.29 305.6C2321.49 305.6 2338.89 305.6 2356.49 305.6C2374.09 305.2 2390.49 305 2405.69 305C2420.89 305 2433.49 305 2443.49 305C2453.49 304.6 2459.29 304.4 2460.89 304.4C2463.29 327.2 2466.69 351.4 2471.09 377C2466.69 377.4 2462.69 377.4 2459.09 377C2455.89 366.2 2452.49 357.6 2448.89 351.2C2445.29 344.4 2441.49 339.2 2437.49 335.6C2432.29 330.8 2425.69 327.6 2417.69 326C2410.09 324.4 2400.49 323.6 2388.89 323.6H2306.09V498.8H2369.09C2383.09 498.8 2393.49 498 2400.29 496.4C2407.09 494.8 2411.89 490.8 2414.69 484.4C2417.49 477.6 2419.89 466.8 2421.89 452C2426.29 451.6 2430.49 451.6 2434.49 452C2434.49 454.8 2434.29 461.8 2433.89 473C2433.49 483.8 2433.29 496 2433.29 509.6C2433.29 522 2433.49 533.8 2433.89 545C2434.29 555.8 2434.49 563 2434.49 566.6C2430.89 567 2426.69 567 2421.89 566.6C2420.29 550.6 2418.09 539.4 2415.29 533C2412.49 526.2 2407.89 522 2401.49 520.4C2395.09 518.8 2385.49 518 2372.69 518H2306.09V706.4H2385.89C2400.29 706.4 2412.49 705.6 2422.49 704C2432.89 702 2440.89 698.2 2446.49 692.6C2450.49 688.6 2454.69 682.2 2459.09 673.4C2463.89 664.6 2468.69 654.2 2473.49 642.2C2477.09 641.8 2480.89 641.8 2484.89 642.2C2481.69 658.2 2478.89 673.6 2476.49 688.4C2474.49 703.2 2472.89 715.4 2471.69 725C2458.49 725 2443.29 725 2426.09 725C2408.89 725 2391.49 725 2373.89 725C2356.29 724.6 2340.29 724.4 2325.89 724.4C2311.49 724.4 2300.49 724.4 2292.89 724.4C2279.29 724.4 2268.09 724.6 2259.29 725C2250.89 725 2243.49 725 2237.09 725C2230.69 725.4 2223.49 725.6 2215.49 725.6ZM2626.13 529.4L2611.13 528.2V673.4C2611.13 685.4 2611.93 694.2 2613.53 699.8C2615.13 705 2618.93 708.4 2624.93 710C2631.33 711.2 2641.73 712.4 2656.13 713.6C2656.53 717.6 2656.53 721.6 2656.13 725.6C2650.53 725.6 2643.13 725.4 2633.93 725C2625.13 725 2616.33 725 2607.53 725C2599.13 724.6 2592.13 724.4 2586.53 724.4C2581.33 724.4 2574.33 724.6 2565.53 725C2557.13 725 2548.73 725 2540.33 725C2531.93 725.4 2524.93 725.6 2519.33 725.6C2518.93 721.6 2518.93 717.6 2519.33 713.6C2533.33 712.4 2543.33 711.2 2549.33 710C2555.73 708.8 2559.53 706 2560.73 701.6C2562.33 696.8 2563.13 689.2 2563.13 678.8V356C2563.13 344 2562.33 335.4 2560.73 330.2C2559.13 325 2555.13 321.6 2548.73 320C2542.73 318.4 2532.93 317.2 2519.33 316.4C2518.93 312.4 2518.93 308.4 2519.33 304.4C2524.93 304.4 2531.93 304.6 2540.33 305C2549.13 305 2557.73 305.2 2566.13 305.6C2574.93 305.6 2581.93 305.6 2587.13 305.6C2592.33 305.6 2600.13 305.6 2610.53 305.6C2620.93 305.2 2631.33 305 2641.73 305C2652.13 304.6 2659.73 304.4 2664.53 304.4C2687.33 304.4 2708.53 307.8 2728.13 314.6C2747.73 321.4 2763.53 332.4 2775.53 347.6C2787.93 362.4 2794.13 382.4 2794.13 407.6C2794.13 437.2 2785.33 461.2 2767.73 479.6C2750.13 498 2726.53 511.8 2696.93 521V522.8C2702.53 525.6 2707.73 529.2 2712.53 533.6C2717.73 537.6 2723.53 543.6 2729.93 551.6C2734.73 557.6 2741.53 567.2 2750.33 580.4C2759.53 593.6 2769.13 608 2779.13 623.6C2789.53 638.8 2798.93 653 2807.33 666.2C2816.53 680.6 2824.33 691 2830.73 697.4C2837.13 703.4 2844.13 707.4 2851.73 709.4C2859.33 711 2869.53 712.4 2882.33 713.6C2882.73 717.6 2882.73 721.6 2882.33 725.6C2876.73 725.6 2869.53 725.4 2860.73 725C2851.93 725 2843.33 725 2834.93 725C2826.93 724.6 2820.73 724.4 2816.33 724.4C2811.53 724.4 2806.93 724.6 2802.53 725C2798.13 725 2793.73 725 2789.33 725C2784.93 717.4 2778.53 707 2770.13 693.8C2761.73 680.2 2752.33 665.4 2741.93 649.4C2731.53 633.4 2721.13 617.8 2710.73 602.6C2700.73 587 2691.73 573.8 2683.73 563C2676.93 553.4 2670.93 546.4 2665.73 542C2660.53 537.6 2654.93 534.6 2648.93 533C2643.33 531.4 2635.73 530.2 2626.13 529.4ZM2611.13 510.2C2616.33 511 2620.93 511.6 2624.93 512C2628.93 512 2632.73 512 2636.33 512C2668.33 512 2693.93 504.2 2713.13 488.6C2732.73 472.6 2742.53 447.8 2742.53 414.2C2742.53 384.2 2734.33 361.4 2717.93 345.8C2701.53 329.8 2677.33 321.8 2645.33 321.8C2635.33 321.8 2623.93 322.4 2611.13 323.6V510.2ZM2915.77 723.2C2915.37 710.4 2914.97 696.4 2914.57 681.2C2914.57 665.6 2913.97 649.4 2912.77 632.6C2914.77 632.2 2916.57 632 2918.17 632C2920.17 632 2922.17 632 2924.17 632C2928.57 659.2 2939.77 680 2957.77 694.4C2976.17 708.4 2997.17 715.4 3020.77 715.4C3045.57 715.4 3064.57 708.2 3077.77 693.8C3090.97 679.4 3097.57 660.8 3097.57 638C3097.57 620 3093.77 604.8 3086.17 592.4C3078.57 579.6 3067.97 568.2 3054.37 558.2C3041.17 547.8 3026.17 537.4 3009.37 527C2993.77 517 2978.57 506.6 2963.77 495.8C2949.37 484.6 2937.57 471.8 2928.37 457.4C2919.17 443 2914.57 425.6 2914.57 405.2C2914.57 384 2919.77 365.4 2930.17 349.4C2940.97 333.4 2955.57 321 2973.97 312.2C2992.77 303 3013.97 298.4 3037.57 298.4C3044.77 298.4 3051.17 298.8 3056.77 299.6C3062.77 300.4 3069.57 301.2 3077.17 302C3084.77 302.8 3090.97 303.4 3095.77 303.8C3100.57 304.2 3104.97 304.4 3108.97 304.4C3109.77 304.4 3111.17 304.4 3113.17 304.4C3115.17 304.4 3117.57 304.2 3120.37 303.8L3125.17 389C3122.77 389.4 3120.57 389.8 3118.57 390.2C3116.97 390.2 3115.17 390.2 3113.17 390.2C3111.17 377.4 3107.57 366 3102.37 356C3097.57 346 3091.97 338.2 3085.57 332.6C3078.77 326.6 3070.37 322.2 3060.37 319.4C3050.37 316.6 3040.57 315.2 3030.97 315.2C3010.17 315.2 2992.77 321.4 2978.77 333.8C2965.17 345.8 2958.37 363 2958.37 385.4C2958.37 401.8 2962.17 416 2969.77 428C2977.37 439.6 2987.57 450.4 3000.37 460.4C3013.17 470 3027.57 480 3043.57 490.4C3059.17 500.4 3074.37 511.4 3089.17 523.4C3103.97 535 3115.97 548.6 3125.17 564.2C3134.77 579.4 3139.57 598 3139.57 620C3139.57 639.6 3135.17 658 3126.37 675.2C3117.57 692 3104.17 705.8 3086.17 716.6C3068.17 727 3045.37 732.2 3017.77 732.2C3011.77 732.2 3004.97 731.8 2997.37 731C2990.17 730.2 2979.37 729 2964.97 727.4C2952.97 725.8 2943.37 724.8 2936.17 724.4C2929.37 723.6 2922.57 723.2 2915.77 723.2ZM3127.31 725.6C3126.91 721.6 3126.91 717.6 3127.31 713.6C3140.51 712.4 3150.31 711 3156.71 709.4C3163.51 707.4 3168.91 703.2 3172.91 696.8C3176.91 690 3181.51 679.2 3186.71 664.4L3319.91 305.6C3323.11 304.4 3326.91 303.6 3331.31 303.2C3336.11 302.4 3339.91 302 3342.71 302L3477.11 668C3482.31 682 3486.51 692 3489.71 698C3493.31 704 3498.31 707.8 3504.71 709.4C3511.11 711 3521.11 712.4 3534.71 713.6C3535.11 717.6 3535.11 721.6 3534.71 725.6C3524.31 725.6 3512.51 725.4 3499.31 725C3486.51 724.6 3474.71 724.4 3463.91 724.4C3452.71 724.4 3442.11 724.6 3432.11 725C3422.51 725.4 3412.11 725.6 3400.91 725.6C3400.51 721.6 3400.51 717.6 3400.91 713.6C3414.91 712.4 3424.11 711.2 3428.51 710C3433.31 708.4 3435.71 704.8 3435.71 699.2C3435.71 697.2 3435.31 694.8 3434.51 692C3433.71 688.8 3432.51 685 3430.91 680.6L3389.51 564.8H3246.71L3207.71 674C3203.71 684.8 3201.71 692.6 3201.71 697.4C3201.71 703.8 3204.71 707.8 3210.71 709.4C3216.71 711 3226.51 712.4 3240.11 713.6C3240.51 717.6 3240.51 721.6 3240.11 725.6C3230.11 725.6 3220.31 725.4 3210.71 725C3201.51 724.6 3191.91 724.4 3181.91 724.4C3173.91 724.4 3164.91 724.6 3154.91 725C3145.31 725.4 3136.11 725.6 3127.31 725.6ZM3253.31 546.2H3382.31L3317.51 365.6L3253.31 546.2ZM3639.76 529.4L3624.76 528.2V673.4C3624.76 685.4 3625.56 694.2 3627.16 699.8C3628.76 705 3632.56 708.4 3638.56 710C3644.96 711.2 3655.36 712.4 3669.76 713.6C3670.16 717.6 3670.16 721.6 3669.76 725.6C3664.16 725.6 3656.76 725.4 3647.56 725C3638.76 725 3629.96 725 3621.16 725C3612.76 724.6 3605.76 724.4 3600.16 724.4C3594.96 724.4 3587.96 724.6 3579.16 725C3570.76 725 3562.36 725 3553.96 725C3545.56 725.4 3538.56 725.6 3532.96 725.6C3532.56 721.6 3532.56 717.6 3532.96 713.6C3546.96 712.4 3556.96 711.2 3562.96 710C3569.36 708.8 3573.16 706 3574.36 701.6C3575.96 696.8 3576.76 689.2 3576.76 678.8V356C3576.76 344 3575.96 335.4 3574.36 330.2C3572.76 325 3568.76 321.6 3562.36 320C3556.36 318.4 3546.56 317.2 3532.96 316.4C3532.56 312.4 3532.56 308.4 3532.96 304.4C3538.56 304.4 3545.56 304.6 3553.96 305C3562.76 305 3571.36 305.2 3579.76 305.6C3588.56 305.6 3595.56 305.6 3600.76 305.6C3605.96 305.6 3613.76 305.6 3624.16 305.6C3634.56 305.2 3644.96 305 3655.36 305C3665.76 304.6 3673.36 304.4 3678.16 304.4C3700.96 304.4 3722.16 307.8 3741.76 314.6C3761.36 321.4 3777.16 332.4 3789.16 347.6C3801.56 362.4 3807.76 382.4 3807.76 407.6C3807.76 437.2 3798.96 461.2 3781.36 479.6C3763.76 498 3740.16 511.8 3710.56 521V522.8C3716.16 525.6 3721.36 529.2 3726.16 533.6C3731.36 537.6 3737.16 543.6 3743.56 551.6C3748.36 557.6 3755.16 567.2 3763.96 580.4C3773.16 593.6 3782.76 608 3792.76 623.6C3803.16 638.8 3812.56 653 3820.96 666.2C3830.16 680.6 3837.96 691 3844.36 697.4C3850.76 703.4 3857.76 707.4 3865.36 709.4C3872.96 711 3883.16 712.4 3895.96 713.6C3896.36 717.6 3896.36 721.6 3895.96 725.6C3890.36 725.6 3883.16 725.4 3874.36 725C3865.56 725 3856.96 725 3848.56 725C3840.56 724.6 3834.36 724.4 3829.96 724.4C3825.16 724.4 3820.56 724.6 3816.16 725C3811.76 725 3807.36 725 3802.96 725C3798.56 717.4 3792.16 707 3783.76 693.8C3775.36 680.2 3765.96 665.4 3755.56 649.4C3745.16 633.4 3734.76 617.8 3724.36 602.6C3714.36 587 3705.36 573.8 3697.36 563C3690.56 553.4 3684.56 546.4 3679.36 542C3674.16 537.6 3668.56 534.6 3662.56 533C3656.96 531.4 3649.36 530.2 3639.76 529.4ZM3624.76 510.2C3629.96 511 3634.56 511.6 3638.56 512C3642.56 512 3646.36 512 3649.96 512C3681.96 512 3707.56 504.2 3726.76 488.6C3746.36 472.6 3756.16 447.8 3756.16 414.2C3756.16 384.2 3747.96 361.4 3731.56 345.8C3715.16 329.8 3690.96 321.8 3658.96 321.8C3648.96 321.8 3637.56 322.4 3624.76 323.6V510.2ZM4116.79 363.8L4016.59 541.4V673.4C4016.59 685.4 4017.19 694.2 4018.39 699.8C4019.99 705 4023.99 708.4 4030.39 710C4036.79 711.2 4047.39 712.4 4062.19 713.6C4062.59 717.6 4062.59 721.6 4062.19 725.6C4056.19 725.6 4048.79 725.4 4039.99 725C4031.19 725 4022.39 725 4013.59 725C4005.19 724.6 3998.19 724.4 3992.59 724.4C3986.99 724.4 3979.79 724.6 3970.99 725C3962.59 725 3953.99 725 3945.19 725C3936.39 725.4 3928.99 725.6 3922.99 725.6C3922.59 721.6 3922.59 717.6 3922.99 713.6C3937.79 712.4 3948.19 711.2 3954.19 710C3960.59 708.4 3964.59 705.4 3966.19 701C3967.79 696.6 3968.59 689.2 3968.59 678.8V545.6L3865.99 360.8C3858.79 347.6 3852.99 338.2 3848.59 332.6C3844.59 326.6 3839.59 322.6 3833.59 320.6C3827.99 318.6 3819.19 317.2 3807.19 316.4C3806.79 312.4 3806.79 308.4 3807.19 304.4C3817.59 304.4 3828.79 304.6 3840.79 305C3853.19 305.4 3864.79 305.6 3875.59 305.6C3884.79 305.6 3894.99 305.4 3906.19 305C3917.79 304.6 3928.79 304.4 3939.19 304.4C3939.59 308.4 3939.59 312.4 3939.19 316.4C3926.79 316.8 3917.99 318 3912.79 320C3907.59 321.6 3904.99 324.6 3904.99 329C3904.99 332.6 3907.79 339.4 3913.39 349.4L4006.99 519.2L4100.59 349.4C4103.39 344.6 4105.39 340.8 4106.59 338C4108.19 334.8 4108.99 332.2 4108.99 330.2C4108.99 325.8 4105.79 322.8 4099.39 321.2C4093.39 319.2 4083.19 317.6 4068.79 316.4C4068.39 312.4 4068.39 308.4 4068.79 304.4C4075.99 304.4 4085.59 304.6 4097.59 305C4109.59 305.4 4119.19 305.6 4126.39 305.6C4135.59 305.6 4144.59 305.4 4153.39 305C4162.59 304.6 4171.59 304.4 4180.39 304.4C4180.79 308.4 4180.79 312.4 4180.39 316.4C4168.39 317.2 4159.19 318.6 4152.79 320.6C4146.39 322.6 4140.79 326.8 4135.99 333.2C4131.19 339.6 4124.79 349.8 4116.79 363.8Z" fill="white"/>
</svg>
